<mxfile host="65bd71144e">
    <diagram id="szqaYqr4SJ2rkdBtMZsW" name="Page-1">
        <mxGraphModel dx="912" dy="771" grid="0" gridSize="10" guides="1" tooltips="1" connect="1" arrows="1" fold="1" page="1" pageScale="1" pageWidth="4681" pageHeight="3300" math="0" shadow="0">
            <root>
                <mxCell id="0"/>
                <mxCell id="1" parent="0"/>
                <mxCell id="5" style="edgeStyle=none;html=1;exitX=1;exitY=0.5;exitDx=0;exitDy=0;entryX=0;entryY=0.5;entryDx=0;entryDy=0;rounded=1;sketch=1;curveFitting=1;jiggle=2;" parent="1" source="2" target="3" edge="1">
                    <mxGeometry relative="1" as="geometry"/>
                </mxCell>
                <mxCell id="2" value="&lt;font style=&quot;font-size: 20px;&quot;&gt;step1&lt;/font&gt;" style="rounded=1;whiteSpace=wrap;html=1;arcSize=0;sketch=1;curveFitting=1;jiggle=2;" parent="1" vertex="1">
                    <mxGeometry x="317" y="326" width="120" height="60" as="geometry"/>
                </mxCell>
                <mxCell id="6" style="edgeStyle=none;html=1;entryX=0;entryY=0.5;entryDx=0;entryDy=0;exitX=1;exitY=0.5;exitDx=0;exitDy=0;rounded=1;sketch=1;curveFitting=1;jiggle=2;" parent="1" source="3" target="4" edge="1">
                    <mxGeometry relative="1" as="geometry"/>
                </mxCell>
                <mxCell id="3" value="&lt;font style=&quot;font-size: 20px;&quot;&gt;step2&lt;/font&gt;" style="rounded=1;whiteSpace=wrap;html=1;arcSize=0;sketch=1;curveFitting=1;jiggle=2;" parent="1" vertex="1">
                    <mxGeometry x="537" y="326" width="120" height="60" as="geometry"/>
                </mxCell>
                <mxCell id="196" value="" style="edgeStyle=none;hachureGap=4;html=1;fontFamily=Architects Daughter;fontSource=https%3A%2F%2Ffonts.googleapis.com%2Fcss%3Ffamily%3DArchitects%2BDaughter;fontSize=16;rounded=1;sketch=1;curveFitting=1;jiggle=2;" parent="1" source="4" target="195" edge="1">
                    <mxGeometry relative="1" as="geometry"/>
                </mxCell>
                <mxCell id="4" value="&lt;font style=&quot;font-size: 20px;&quot;&gt;step3&lt;/font&gt;" style="rounded=1;whiteSpace=wrap;html=1;arcSize=0;sketch=1;curveFitting=1;jiggle=2;" parent="1" vertex="1">
                    <mxGeometry x="757" y="326" width="120" height="60" as="geometry"/>
                </mxCell>
                <mxCell id="13" style="edgeStyle=none;html=1;entryX=0;entryY=0.5;entryDx=0;entryDy=0;fontSize=16;rounded=1;sketch=1;curveFitting=1;jiggle=2;" parent="1" source="9" target="12" edge="1">
                    <mxGeometry relative="1" as="geometry"/>
                </mxCell>
                <mxCell id="20" value="条件为真" style="edgeLabel;html=1;align=center;verticalAlign=middle;resizable=0;points=[];fontSize=16;rounded=1;sketch=1;curveFitting=1;jiggle=2;" parent="13" vertex="1" connectable="0">
                    <mxGeometry x="-0.2884" relative="1" as="geometry">
                        <mxPoint x="5" as="offset"/>
                    </mxGeometry>
                </mxCell>
                <mxCell id="9" value="条件判断" style="html=1;whiteSpace=wrap;aspect=fixed;shape=isoRectangle;fontSize=20;rounded=1;sketch=1;curveFitting=1;jiggle=2;" parent="1" vertex="1">
                    <mxGeometry x="317" y="550" width="150" height="90" as="geometry"/>
                </mxCell>
                <mxCell id="19" style="edgeStyle=none;html=1;entryX=0;entryY=0.5;entryDx=0;entryDy=0;fontSize=16;rounded=1;sketch=1;curveFitting=1;jiggle=2;" parent="1" source="12" edge="1">
                    <mxGeometry relative="1" as="geometry">
                        <mxPoint x="757" y="595" as="targetPoint"/>
                    </mxGeometry>
                </mxCell>
                <mxCell id="12" value="语句" style="rounded=1;whiteSpace=wrap;html=1;fontSize=20;arcSize=0;sketch=1;curveFitting=1;jiggle=2;" parent="1" vertex="1">
                    <mxGeometry x="552" y="565" width="120" height="60" as="geometry"/>
                </mxCell>
                <mxCell id="18" value="" style="edgeStyle=elbowEdgeStyle;elbow=vertical;endArrow=classic;html=1;curved=0;rounded=1;endSize=8;startSize=8;fontSize=16;entryX=0.5;entryY=1;entryDx=0;entryDy=0;exitX=0.496;exitY=0.975;exitDx=0;exitDy=0;exitPerimeter=0;sketch=1;curveFitting=1;jiggle=2;" parent="1" source="9" edge="1">
                    <mxGeometry width="50" height="50" relative="1" as="geometry">
                        <mxPoint x="392" y="635" as="sourcePoint"/>
                        <mxPoint x="817" y="625" as="targetPoint"/>
                        <Array as="points">
                            <mxPoint x="732" y="675"/>
                            <mxPoint x="632" y="745"/>
                        </Array>
                    </mxGeometry>
                </mxCell>
                <mxCell id="21" value="条件为假" style="edgeLabel;html=1;align=center;verticalAlign=middle;resizable=0;points=[];fontSize=16;rounded=1;sketch=1;curveFitting=1;jiggle=2;" parent="18" vertex="1" connectable="0">
                    <mxGeometry x="-0.1674" y="-1" relative="1" as="geometry">
                        <mxPoint x="34" as="offset"/>
                    </mxGeometry>
                </mxCell>
                <mxCell id="57" style="edgeStyle=orthogonalEdgeStyle;rounded=1;html=1;fontSize=16;elbow=vertical;entryX=0;entryY=0.5;entryDx=0;entryDy=0;exitX=0.496;exitY=0.983;exitDx=0;exitDy=0;exitPerimeter=0;sketch=1;curveFitting=1;jiggle=2;" parent="1" source="36" target="39" edge="1">
                    <mxGeometry relative="1" as="geometry">
                        <mxPoint x="455.94870229867786" y="985.2136856470354" as="targetPoint"/>
                        <Array as="points">
                            <mxPoint x="405" y="939"/>
                        </Array>
                    </mxGeometry>
                </mxCell>
                <mxCell id="60" value="条件为假" style="edgeLabel;html=1;align=center;verticalAlign=middle;resizable=0;points=[];fontSize=16;rounded=1;sketch=1;curveFitting=1;jiggle=2;" parent="57" vertex="1" connectable="0">
                    <mxGeometry x="0.0852" y="-1" relative="1" as="geometry">
                        <mxPoint x="4" y="-1" as="offset"/>
                    </mxGeometry>
                </mxCell>
                <mxCell id="36" value="条件判断" style="html=1;whiteSpace=wrap;aspect=fixed;shape=isoRectangle;fontSize=20;rounded=1;sketch=1;curveFitting=1;jiggle=2;" parent="1" vertex="1">
                    <mxGeometry x="331" y="815" width="150" height="90" as="geometry"/>
                </mxCell>
                <mxCell id="209" style="edgeStyle=orthogonalEdgeStyle;html=1;entryX=0.5;entryY=0;entryDx=0;entryDy=0;exitX=1;exitY=0.5;exitDx=0;exitDy=0;sketch=1;curveFitting=1;jiggle=2;" parent="1" source="38" target="200" edge="1">
                    <mxGeometry relative="1" as="geometry"/>
                </mxCell>
                <mxCell id="38" value="语句1" style="rounded=1;whiteSpace=wrap;html=1;fontSize=20;arcSize=0;sketch=1;curveFitting=1;jiggle=2;" parent="1" vertex="1">
                    <mxGeometry x="566" y="746" width="120" height="60" as="geometry"/>
                </mxCell>
                <mxCell id="210" style="edgeStyle=orthogonalEdgeStyle;hachureGap=4;html=1;entryX=0.5;entryY=1;entryDx=0;entryDy=0;fontFamily=Architects Daughter;fontSource=https%3A%2F%2Ffonts.googleapis.com%2Fcss%3Ffamily%3DArchitects%2BDaughter;fontSize=16;sketch=1;curveFitting=1;jiggle=2;" parent="1" source="39" target="200" edge="1">
                    <mxGeometry relative="1" as="geometry"/>
                </mxCell>
                <mxCell id="39" value="语句2" style="rounded=1;whiteSpace=wrap;html=1;fontSize=20;arcSize=0;sketch=1;curveFitting=1;jiggle=2;" parent="1" vertex="1">
                    <mxGeometry x="566" y="909" width="120" height="60" as="geometry"/>
                </mxCell>
                <mxCell id="47" value="" style="endArrow=classic;html=1;rounded=1;fontSize=16;elbow=vertical;entryX=0;entryY=0.5;entryDx=0;entryDy=0;exitX=0.5;exitY=0.011;exitDx=0;exitDy=0;exitPerimeter=0;edgeStyle=orthogonalEdgeStyle;sketch=1;curveFitting=1;jiggle=2;" parent="1" source="36" target="38" edge="1">
                    <mxGeometry width="50" height="50" relative="1" as="geometry">
                        <mxPoint x="397" y="811" as="sourcePoint"/>
                        <mxPoint x="447" y="761" as="targetPoint"/>
                    </mxGeometry>
                </mxCell>
                <mxCell id="54" value="条件为真" style="edgeLabel;html=1;align=center;verticalAlign=middle;resizable=0;points=[];fontSize=16;rounded=1;sketch=1;curveFitting=1;jiggle=2;" parent="47" vertex="1" connectable="0">
                    <mxGeometry x="-0.2017" y="-1" relative="1" as="geometry">
                        <mxPoint x="37" y="-1" as="offset"/>
                    </mxGeometry>
                </mxCell>
                <mxCell id="73" style="edgeStyle=orthogonalEdgeStyle;rounded=1;html=1;fontSize=16;elbow=vertical;sketch=1;curveFitting=1;jiggle=2;" parent="1" source="65" target="67" edge="1">
                    <mxGeometry relative="1" as="geometry"/>
                </mxCell>
                <mxCell id="82" value="条件1为真" style="edgeLabel;html=1;align=center;verticalAlign=middle;resizable=0;points=[];fontSize=16;rounded=1;sketch=1;curveFitting=1;jiggle=2;" parent="73" vertex="1" connectable="0">
                    <mxGeometry x="-0.2549" y="1" relative="1" as="geometry">
                        <mxPoint x="15" y="1" as="offset"/>
                    </mxGeometry>
                </mxCell>
                <mxCell id="75" value="" style="edgeStyle=orthogonalEdgeStyle;rounded=1;html=1;fontSize=16;elbow=vertical;sketch=1;curveFitting=1;jiggle=2;" parent="1" source="65" target="74" edge="1">
                    <mxGeometry relative="1" as="geometry"/>
                </mxCell>
                <mxCell id="65" value="条件1判断" style="html=1;whiteSpace=wrap;aspect=fixed;shape=isoRectangle;fontSize=20;rounded=1;sketch=1;curveFitting=1;jiggle=2;" parent="1" vertex="1">
                    <mxGeometry x="331" y="1081" width="150" height="90" as="geometry"/>
                </mxCell>
                <mxCell id="89" value="" style="edgeStyle=orthogonalEdgeStyle;rounded=1;html=1;fontSize=16;elbow=vertical;sketch=1;curveFitting=1;jiggle=2;" parent="1" source="67" edge="1">
                    <mxGeometry relative="1" as="geometry">
                        <mxPoint x="800" y="1126" as="targetPoint"/>
                    </mxGeometry>
                </mxCell>
                <mxCell id="67" value="语句1" style="rounded=1;whiteSpace=wrap;html=1;fontSize=20;arcSize=0;sketch=1;curveFitting=1;jiggle=2;" parent="1" vertex="1">
                    <mxGeometry x="600" y="1096" width="120" height="60" as="geometry"/>
                </mxCell>
                <mxCell id="77" value="" style="edgeStyle=orthogonalEdgeStyle;rounded=1;html=1;fontSize=16;elbow=vertical;sketch=1;curveFitting=1;jiggle=2;" parent="1" source="74" target="76" edge="1">
                    <mxGeometry relative="1" as="geometry"/>
                </mxCell>
                <mxCell id="80" value="" style="edgeStyle=orthogonalEdgeStyle;rounded=1;html=1;fontSize=16;elbow=vertical;sketch=1;curveFitting=1;jiggle=2;" parent="1" source="74" target="78" edge="1">
                    <mxGeometry relative="1" as="geometry"/>
                </mxCell>
                <mxCell id="84" value="条件2为真" style="edgeLabel;html=1;align=center;verticalAlign=middle;resizable=0;points=[];fontSize=16;rounded=1;sketch=1;curveFitting=1;jiggle=2;" parent="80" vertex="1" connectable="0">
                    <mxGeometry x="-0.2909" y="-3" relative="1" as="geometry">
                        <mxPoint x="17" y="-3" as="offset"/>
                    </mxGeometry>
                </mxCell>
                <mxCell id="74" value="条件2判断" style="html=1;whiteSpace=wrap;aspect=fixed;shape=isoRectangle;fontSize=20;rounded=1;sketch=1;curveFitting=1;jiggle=2;" parent="1" vertex="1">
                    <mxGeometry x="331" y="1226" width="150" height="90" as="geometry"/>
                </mxCell>
                <mxCell id="81" value="" style="edgeStyle=orthogonalEdgeStyle;rounded=1;html=1;fontSize=16;elbow=vertical;sketch=1;curveFitting=1;jiggle=2;" parent="1" source="76" target="79" edge="1">
                    <mxGeometry relative="1" as="geometry"/>
                </mxCell>
                <mxCell id="85" value="条件3为真" style="edgeLabel;html=1;align=center;verticalAlign=middle;resizable=0;points=[];fontSize=16;rounded=1;sketch=1;curveFitting=1;jiggle=2;" parent="81" vertex="1" connectable="0">
                    <mxGeometry x="-0.3439" y="1" relative="1" as="geometry">
                        <mxPoint x="21" y="1" as="offset"/>
                    </mxGeometry>
                </mxCell>
                <mxCell id="96" value="" style="edgeStyle=orthogonalEdgeStyle;rounded=1;html=1;fontSize=16;elbow=vertical;sketch=1;curveFitting=1;jiggle=2;" parent="1" source="76" target="95" edge="1">
                    <mxGeometry relative="1" as="geometry">
                        <Array as="points">
                            <mxPoint x="406" y="1537"/>
                        </Array>
                    </mxGeometry>
                </mxCell>
                <mxCell id="97" value="条件3为假" style="edgeLabel;html=1;align=center;verticalAlign=middle;resizable=0;points=[];fontSize=16;rounded=1;sketch=1;curveFitting=1;jiggle=2;" parent="96" vertex="1" connectable="0">
                    <mxGeometry x="0.4374" y="4" relative="1" as="geometry">
                        <mxPoint x="18" y="1" as="offset"/>
                    </mxGeometry>
                </mxCell>
                <mxCell id="76" value="条件3判断" style="html=1;whiteSpace=wrap;aspect=fixed;shape=isoRectangle;fontSize=20;rounded=1;sketch=1;curveFitting=1;jiggle=2;" parent="1" vertex="1">
                    <mxGeometry x="331" y="1373" width="150" height="90" as="geometry"/>
                </mxCell>
                <mxCell id="90" style="edgeStyle=orthogonalEdgeStyle;rounded=1;html=1;fontSize=16;elbow=vertical;entryX=0.5;entryY=1;entryDx=0;entryDy=0;sketch=1;curveFitting=1;jiggle=2;" parent="1" source="78" edge="1">
                    <mxGeometry relative="1" as="geometry">
                        <mxPoint x="860" y="1156" as="targetPoint"/>
                    </mxGeometry>
                </mxCell>
                <mxCell id="78" value="语句2" style="rounded=1;whiteSpace=wrap;html=1;fontSize=20;arcSize=0;sketch=1;curveFitting=1;jiggle=2;" parent="1" vertex="1">
                    <mxGeometry x="600" y="1241" width="120" height="60" as="geometry"/>
                </mxCell>
                <mxCell id="91" style="edgeStyle=orthogonalEdgeStyle;rounded=1;html=1;fontSize=16;elbow=vertical;entryX=0.5;entryY=1;entryDx=0;entryDy=0;sketch=1;curveFitting=1;jiggle=2;" parent="1" source="79" edge="1">
                    <mxGeometry relative="1" as="geometry">
                        <mxPoint x="860" y="1156" as="targetPoint"/>
                    </mxGeometry>
                </mxCell>
                <mxCell id="79" value="语句3" style="rounded=1;whiteSpace=wrap;html=1;fontSize=20;arcSize=0;sketch=1;curveFitting=1;jiggle=2;" parent="1" vertex="1">
                    <mxGeometry x="600" y="1388" width="120" height="60" as="geometry"/>
                </mxCell>
                <mxCell id="86" value="条件1为假" style="text;html=1;strokeColor=none;fillColor=none;align=center;verticalAlign=middle;whiteSpace=wrap;rounded=1;fontSize=16;sketch=1;curveFitting=1;jiggle=2;" parent="1" vertex="1">
                    <mxGeometry x="406" y="1183" width="82" height="30" as="geometry"/>
                </mxCell>
                <mxCell id="87" value="条件2为假" style="text;html=1;strokeColor=none;fillColor=none;align=center;verticalAlign=middle;whiteSpace=wrap;rounded=1;fontSize=16;sketch=1;curveFitting=1;jiggle=2;" parent="1" vertex="1">
                    <mxGeometry x="406" y="1329" width="82" height="30" as="geometry"/>
                </mxCell>
                <mxCell id="98" style="edgeStyle=orthogonalEdgeStyle;rounded=1;html=1;entryX=0.5;entryY=1;entryDx=0;entryDy=0;fontSize=16;elbow=vertical;sketch=1;curveFitting=1;jiggle=2;" parent="1" source="95" edge="1">
                    <mxGeometry relative="1" as="geometry">
                        <mxPoint x="860" y="1156" as="targetPoint"/>
                    </mxGeometry>
                </mxCell>
                <mxCell id="95" value="语句4" style="rounded=1;whiteSpace=wrap;html=1;fontSize=20;arcSize=0;sketch=1;curveFitting=1;jiggle=2;" parent="1" vertex="1">
                    <mxGeometry x="600" y="1507" width="120" height="60" as="geometry"/>
                </mxCell>
                <mxCell id="99" style="edgeStyle=none;html=1;entryX=0.013;entryY=0.5;entryDx=0;entryDy=0;entryPerimeter=0;fontSize=16;rounded=1;sketch=1;curveFitting=1;jiggle=2;" parent="1" target="104" edge="1">
                    <mxGeometry relative="1" as="geometry">
                        <mxPoint x="1327" y="1327" as="sourcePoint"/>
                    </mxGeometry>
                </mxCell>
                <mxCell id="146" style="edgeStyle=orthogonalEdgeStyle;rounded=1;html=1;entryX=0.005;entryY=0.497;entryDx=0;entryDy=0;entryPerimeter=0;fontSize=16;elbow=vertical;sketch=1;curveFitting=1;jiggle=2;" parent="1" source="104" target="125" edge="1">
                    <mxGeometry relative="1" as="geometry">
                        <Array as="points">
                            <mxPoint x="1452" y="1152"/>
                        </Array>
                    </mxGeometry>
                </mxCell>
                <mxCell id="147" value="条件1为真" style="edgeLabel;html=1;align=center;verticalAlign=middle;resizable=0;points=[];fontSize=16;rounded=1;sketch=1;curveFitting=1;jiggle=2;" parent="146" vertex="1" connectable="0">
                    <mxGeometry x="-0.2499" y="-3" relative="1" as="geometry">
                        <mxPoint x="-3" y="21" as="offset"/>
                    </mxGeometry>
                </mxCell>
                <mxCell id="148" style="edgeStyle=orthogonalEdgeStyle;rounded=1;html=1;entryX=0.005;entryY=0.504;entryDx=0;entryDy=0;entryPerimeter=0;fontSize=16;elbow=vertical;sketch=1;curveFitting=1;jiggle=2;" parent="1" source="104" target="110" edge="1">
                    <mxGeometry relative="1" as="geometry">
                        <Array as="points">
                            <mxPoint x="1452" y="1501"/>
                        </Array>
                    </mxGeometry>
                </mxCell>
                <mxCell id="149" value="条件1为假" style="edgeLabel;html=1;align=center;verticalAlign=middle;resizable=0;points=[];fontSize=16;rounded=1;sketch=1;curveFitting=1;jiggle=2;" parent="148" vertex="1" connectable="0">
                    <mxGeometry x="-0.221" y="2" relative="1" as="geometry">
                        <mxPoint x="-2" y="-20" as="offset"/>
                    </mxGeometry>
                </mxCell>
                <mxCell id="104" value="条件1判断" style="html=1;whiteSpace=wrap;aspect=fixed;shape=isoRectangle;fontSize=20;rounded=1;sketch=1;curveFitting=1;jiggle=2;" parent="1" vertex="1">
                    <mxGeometry x="1377" y="1282" width="150" height="90" as="geometry"/>
                </mxCell>
                <mxCell id="155" style="edgeStyle=orthogonalEdgeStyle;rounded=1;html=1;entryX=0;entryY=0.5;entryDx=0;entryDy=0;fontSize=16;elbow=vertical;sketch=1;curveFitting=1;jiggle=2;" parent="1" source="110" target="117" edge="1">
                    <mxGeometry relative="1" as="geometry">
                        <Array as="points">
                            <mxPoint x="1610" y="1426"/>
                        </Array>
                    </mxGeometry>
                </mxCell>
                <mxCell id="156" value="条件3为真" style="edgeLabel;html=1;align=center;verticalAlign=middle;resizable=0;points=[];fontSize=16;rounded=1;sketch=1;curveFitting=1;jiggle=2;" parent="155" vertex="1" connectable="0">
                    <mxGeometry x="-0.2976" y="1" relative="1" as="geometry">
                        <mxPoint x="43" y="-1" as="offset"/>
                    </mxGeometry>
                </mxCell>
                <mxCell id="157" style="edgeStyle=orthogonalEdgeStyle;rounded=1;html=1;entryX=0;entryY=0.5;entryDx=0;entryDy=0;fontSize=16;elbow=vertical;sketch=1;curveFitting=1;jiggle=2;" parent="1" source="110" target="139" edge="1">
                    <mxGeometry relative="1" as="geometry">
                        <Array as="points">
                            <mxPoint x="1610" y="1582"/>
                        </Array>
                    </mxGeometry>
                </mxCell>
                <mxCell id="158" value="条件3为假" style="edgeLabel;html=1;align=center;verticalAlign=middle;resizable=0;points=[];fontSize=16;rounded=1;sketch=1;curveFitting=1;jiggle=2;" parent="157" vertex="1" connectable="0">
                    <mxGeometry x="-0.0893" y="-2" relative="1" as="geometry">
                        <mxPoint x="28" y="-2" as="offset"/>
                    </mxGeometry>
                </mxCell>
                <mxCell id="110" value="条件3判断" style="html=1;whiteSpace=wrap;aspect=fixed;shape=isoRectangle;fontSize=20;rounded=1;sketch=1;curveFitting=1;jiggle=2;" parent="1" vertex="1">
                    <mxGeometry x="1535" y="1456" width="150" height="90" as="geometry"/>
                </mxCell>
                <mxCell id="161" style="edgeStyle=orthogonalEdgeStyle;rounded=1;html=1;entryX=0.5;entryY=1;entryDx=0;entryDy=0;fontSize=16;elbow=vertical;sketch=1;curveFitting=1;jiggle=2;" parent="1" source="117" edge="1">
                    <mxGeometry relative="1" as="geometry">
                        <mxPoint x="2023" y="1357" as="targetPoint"/>
                    </mxGeometry>
                </mxCell>
                <mxCell id="117" value="语句3" style="rounded=1;whiteSpace=wrap;html=1;fontSize=20;arcSize=0;sketch=1;curveFitting=1;jiggle=2;" parent="1" vertex="1">
                    <mxGeometry x="1757" y="1396" width="120" height="60" as="geometry"/>
                </mxCell>
                <mxCell id="150" style="edgeStyle=orthogonalEdgeStyle;rounded=1;html=1;entryX=0;entryY=0.5;entryDx=0;entryDy=0;fontSize=16;elbow=vertical;sketch=1;curveFitting=1;jiggle=2;" parent="1" source="125" target="135" edge="1">
                    <mxGeometry relative="1" as="geometry">
                        <Array as="points">
                            <mxPoint x="1610" y="1075"/>
                        </Array>
                    </mxGeometry>
                </mxCell>
                <mxCell id="152" value="条件2为真" style="edgeLabel;html=1;align=center;verticalAlign=middle;resizable=0;points=[];fontSize=16;rounded=1;sketch=1;curveFitting=1;jiggle=2;" parent="150" vertex="1" connectable="0">
                    <mxGeometry x="0.0018" relative="1" as="geometry">
                        <mxPoint x="17" as="offset"/>
                    </mxGeometry>
                </mxCell>
                <mxCell id="153" style="edgeStyle=orthogonalEdgeStyle;rounded=1;html=1;entryX=0;entryY=0.5;entryDx=0;entryDy=0;fontSize=16;elbow=vertical;sketch=1;curveFitting=1;jiggle=2;" parent="1" source="125" target="130" edge="1">
                    <mxGeometry relative="1" as="geometry">
                        <Array as="points">
                            <mxPoint x="1610" y="1223"/>
                        </Array>
                    </mxGeometry>
                </mxCell>
                <mxCell id="154" value="条件2为假" style="edgeLabel;html=1;align=center;verticalAlign=middle;resizable=0;points=[];fontSize=16;rounded=1;sketch=1;curveFitting=1;jiggle=2;" parent="153" vertex="1" connectable="0">
                    <mxGeometry x="-0.2601" y="-3" relative="1" as="geometry">
                        <mxPoint x="37" y="-3" as="offset"/>
                    </mxGeometry>
                </mxCell>
                <mxCell id="125" value="条件2判断" style="html=1;whiteSpace=wrap;aspect=fixed;shape=isoRectangle;fontSize=20;rounded=1;sketch=1;curveFitting=1;jiggle=2;" parent="1" vertex="1">
                    <mxGeometry x="1535" y="1107" width="150" height="90" as="geometry"/>
                </mxCell>
                <mxCell id="160" style="edgeStyle=orthogonalEdgeStyle;rounded=1;html=1;entryX=0.5;entryY=0;entryDx=0;entryDy=0;fontSize=16;elbow=vertical;sketch=1;curveFitting=1;jiggle=2;" parent="1" source="130" edge="1">
                    <mxGeometry relative="1" as="geometry">
                        <mxPoint x="2023" y="1297" as="targetPoint"/>
                    </mxGeometry>
                </mxCell>
                <mxCell id="130" value="语句2" style="rounded=1;whiteSpace=wrap;html=1;fontSize=20;arcSize=0;sketch=1;curveFitting=1;jiggle=2;" parent="1" vertex="1">
                    <mxGeometry x="1757" y="1193" width="120" height="60" as="geometry"/>
                </mxCell>
                <mxCell id="159" style="edgeStyle=orthogonalEdgeStyle;rounded=1;html=1;entryX=0.5;entryY=0;entryDx=0;entryDy=0;fontSize=16;elbow=vertical;sketch=1;curveFitting=1;jiggle=2;" parent="1" source="135" edge="1">
                    <mxGeometry relative="1" as="geometry">
                        <mxPoint x="2023" y="1297" as="targetPoint"/>
                    </mxGeometry>
                </mxCell>
                <mxCell id="135" value="语句1" style="rounded=1;whiteSpace=wrap;html=1;fontSize=20;arcSize=0;sketch=1;curveFitting=1;jiggle=2;" parent="1" vertex="1">
                    <mxGeometry x="1757" y="1045" width="120" height="60" as="geometry"/>
                </mxCell>
                <mxCell id="163" style="edgeStyle=orthogonalEdgeStyle;rounded=1;html=1;entryX=0.5;entryY=1;entryDx=0;entryDy=0;fontSize=16;elbow=vertical;sketch=1;curveFitting=1;jiggle=2;" parent="1" source="139" edge="1">
                    <mxGeometry relative="1" as="geometry">
                        <mxPoint x="2023" y="1357" as="targetPoint"/>
                    </mxGeometry>
                </mxCell>
                <mxCell id="139" value="语句4" style="rounded=1;whiteSpace=wrap;html=1;fontSize=20;arcSize=0;sketch=1;curveFitting=1;jiggle=2;" parent="1" vertex="1">
                    <mxGeometry x="1757" y="1552" width="120" height="60" as="geometry"/>
                </mxCell>
                <mxCell id="166" style="edgeStyle=orthogonalEdgeStyle;rounded=1;html=1;fontSize=16;elbow=vertical;entryX=0;entryY=0.5;entryDx=0;entryDy=0;sketch=1;curveFitting=1;jiggle=2;" parent="1" source="170" target="187" edge="1">
                    <mxGeometry relative="1" as="geometry">
                        <Array as="points">
                            <mxPoint x="2540" y="1152"/>
                        </Array>
                        <mxPoint x="2472" y="1101" as="targetPoint"/>
                    </mxGeometry>
                </mxCell>
                <mxCell id="167" value="True" style="edgeLabel;html=1;align=center;verticalAlign=middle;resizable=0;points=[];fontSize=16;rounded=1;sketch=1;curveFitting=1;jiggle=2;" parent="166" vertex="1" connectable="0">
                    <mxGeometry x="-0.2499" y="-3" relative="1" as="geometry">
                        <mxPoint x="-3" y="21" as="offset"/>
                    </mxGeometry>
                </mxCell>
                <mxCell id="168" style="edgeStyle=orthogonalEdgeStyle;rounded=1;html=1;entryX=0.005;entryY=0.504;entryDx=0;entryDy=0;entryPerimeter=0;fontSize=16;elbow=vertical;sketch=1;curveFitting=1;jiggle=2;" parent="1" source="170" target="175" edge="1">
                    <mxGeometry relative="1" as="geometry">
                        <Array as="points">
                            <mxPoint x="2540" y="1499"/>
                            <mxPoint x="2585" y="1499"/>
                        </Array>
                    </mxGeometry>
                </mxCell>
                <mxCell id="169" value="False" style="edgeLabel;html=1;align=center;verticalAlign=middle;resizable=0;points=[];fontSize=16;rounded=1;sketch=1;curveFitting=1;jiggle=2;" parent="168" vertex="1" connectable="0">
                    <mxGeometry x="-0.221" y="2" relative="1" as="geometry">
                        <mxPoint x="-2" y="-20" as="offset"/>
                    </mxGeometry>
                </mxCell>
                <mxCell id="170" value="是否为大写状态" style="html=1;whiteSpace=wrap;aspect=fixed;shape=isoRectangle;fontSize=16;rounded=1;sketch=1;curveFitting=1;jiggle=2;" parent="1" vertex="1">
                    <mxGeometry x="2465" y="1280.5" width="150" height="90" as="geometry"/>
                </mxCell>
                <mxCell id="173" style="edgeStyle=orthogonalEdgeStyle;rounded=1;html=1;fontSize=16;elbow=vertical;entryX=0;entryY=0.5;entryDx=0;entryDy=0;sketch=1;curveFitting=1;jiggle=2;" parent="1" source="175" target="189" edge="1">
                    <mxGeometry relative="1" as="geometry">
                        <Array as="points">
                            <mxPoint x="2659" y="1584"/>
                            <mxPoint x="2792" y="1584"/>
                            <mxPoint x="2792" y="1582"/>
                        </Array>
                        <mxPoint x="2846" y="1521" as="targetPoint"/>
                    </mxGeometry>
                </mxCell>
                <mxCell id="174" value="英语-美式键盘" style="edgeLabel;html=1;align=center;verticalAlign=middle;resizable=0;points=[];fontSize=16;rounded=1;sketch=1;curveFitting=1;jiggle=2;" parent="173" vertex="1" connectable="0">
                    <mxGeometry x="-0.0893" y="-2" relative="1" as="geometry">
                        <mxPoint x="28" y="-2" as="offset"/>
                    </mxGeometry>
                </mxCell>
                <mxCell id="221" style="edgeStyle=orthogonalEdgeStyle;hachureGap=4;html=1;entryX=0.005;entryY=0.49;entryDx=0;entryDy=0;entryPerimeter=0;fontFamily=Architects Daughter;fontSource=https%3A%2F%2Ffonts.googleapis.com%2Fcss%3Ffamily%3DArchitects%2BDaughter;fontSize=20;exitX=0.502;exitY=0.017;exitDx=0;exitDy=0;exitPerimeter=0;sketch=1;curveFitting=1;jiggle=2;" parent="1" source="175" target="218" edge="1">
                    <mxGeometry relative="1" as="geometry">
                        <Array as="points">
                            <mxPoint x="2659" y="1342"/>
                        </Array>
                    </mxGeometry>
                </mxCell>
                <mxCell id="230" value="&lt;font style=&quot;font-size: 16px;&quot;&gt;简体中文-微软拼音&lt;/font&gt;" style="edgeLabel;html=1;align=center;verticalAlign=middle;resizable=0;points=[];fontSize=20;fontFamily=Architects Daughter;sketch=1;curveFitting=1;jiggle=2;" parent="221" vertex="1" connectable="0">
                    <mxGeometry x="0.1737" y="-2" relative="1" as="geometry">
                        <mxPoint x="26" y="-1" as="offset"/>
                    </mxGeometry>
                </mxCell>
                <mxCell id="175" value="判断输入法语言" style="html=1;whiteSpace=wrap;aspect=fixed;shape=isoRectangle;fontSize=16;rounded=1;sketch=1;curveFitting=1;jiggle=2;" parent="1" vertex="1">
                    <mxGeometry x="2584" y="1453" width="150" height="90" as="geometry"/>
                </mxCell>
                <mxCell id="236" style="edgeStyle=orthogonalEdgeStyle;hachureGap=4;html=1;fontFamily=Architects Daughter;fontSource=https%3A%2F%2Ffonts.googleapis.com%2Fcss%3Ffamily%3DArchitects%2BDaughter;fontSize=16;sketch=1;curveFitting=1;jiggle=2;" parent="1" source="187" target="217" edge="1">
                    <mxGeometry relative="1" as="geometry"/>
                </mxCell>
                <mxCell id="187" value="打印“大写状态”" style="rounded=1;whiteSpace=wrap;html=1;fontSize=16;arcSize=0;sketch=1;curveFitting=1;jiggle=2;" parent="1" vertex="1">
                    <mxGeometry x="2599" y="1122" width="120" height="60" as="geometry"/>
                </mxCell>
                <mxCell id="237" style="edgeStyle=orthogonalEdgeStyle;hachureGap=4;html=1;entryX=0.5;entryY=1;entryDx=0;entryDy=0;fontFamily=Architects Daughter;fontSource=https%3A%2F%2Ffonts.googleapis.com%2Fcss%3Ffamily%3DArchitects%2BDaughter;fontSize=16;sketch=1;curveFitting=1;jiggle=2;" parent="1" source="189" target="217" edge="1">
                    <mxGeometry relative="1" as="geometry"/>
                </mxCell>
                <mxCell id="189" value="打印“英语-美式键盘”" style="rounded=1;whiteSpace=wrap;html=1;fontSize=16;arcSize=0;sketch=1;curveFitting=1;jiggle=2;" parent="1" vertex="1">
                    <mxGeometry x="2831.5" y="1552" width="175" height="60" as="geometry"/>
                </mxCell>
                <mxCell id="191" value="" style="edgeStyle=none;html=1;rounded=1;sketch=1;curveFitting=1;jiggle=2;" parent="1" target="170" edge="1">
                    <mxGeometry relative="1" as="geometry">
                        <mxPoint x="2409" y="1325.5" as="sourcePoint"/>
                    </mxGeometry>
                </mxCell>
                <mxCell id="194" value="" style="edgeStyle=none;hachureGap=4;html=1;fontFamily=Architects Daughter;fontSource=https%3A%2F%2Ffonts.googleapis.com%2Fcss%3Ffamily%3DArchitects%2BDaughter;fontSize=16;rounded=1;sketch=1;curveFitting=1;jiggle=2;" parent="1" source="193" target="2" edge="1">
                    <mxGeometry relative="1" as="geometry"/>
                </mxCell>
                <mxCell id="193" value="开始" style="rounded=1;whiteSpace=wrap;html=1;hachureGap=4;fontFamily=Architects Daughter;fontSource=https%3A%2F%2Ffonts.googleapis.com%2Fcss%3Ffamily%3DArchitects%2BDaughter;fontSize=20;sketch=1;curveFitting=1;jiggle=2;" parent="1" vertex="1">
                    <mxGeometry x="128" y="326" width="120" height="60" as="geometry"/>
                </mxCell>
                <mxCell id="195" value="结束" style="rounded=1;whiteSpace=wrap;html=1;hachureGap=4;fontFamily=Architects Daughter;fontSource=https%3A%2F%2Ffonts.googleapis.com%2Fcss%3Ffamily%3DArchitects%2BDaughter;fontSize=20;sketch=1;curveFitting=1;jiggle=2;" parent="1" vertex="1">
                    <mxGeometry x="950" y="326" width="120" height="60" as="geometry"/>
                </mxCell>
                <mxCell id="199" value="" style="edgeStyle=none;hachureGap=4;html=1;fontFamily=Architects Daughter;fontSource=https%3A%2F%2Ffonts.googleapis.com%2Fcss%3Ffamily%3DArchitects%2BDaughter;fontSize=20;rounded=1;sketch=1;curveFitting=1;jiggle=2;" parent="1" source="197" target="9" edge="1">
                    <mxGeometry relative="1" as="geometry"/>
                </mxCell>
                <mxCell id="197" value="开始" style="rounded=1;whiteSpace=wrap;html=1;hachureGap=4;fontFamily=Architects Daughter;fontSource=https%3A%2F%2Ffonts.googleapis.com%2Fcss%3Ffamily%3DArchitects%2BDaughter;fontSize=20;sketch=1;curveFitting=1;jiggle=2;" parent="1" vertex="1">
                    <mxGeometry x="130" y="566" width="120" height="60" as="geometry"/>
                </mxCell>
                <mxCell id="200" value="结束" style="rounded=1;whiteSpace=wrap;html=1;hachureGap=4;fontFamily=Architects Daughter;fontSource=https%3A%2F%2Ffonts.googleapis.com%2Fcss%3Ffamily%3DArchitects%2BDaughter;fontSize=20;sketch=1;curveFitting=1;jiggle=2;" parent="1" vertex="1">
                    <mxGeometry x="757" y="830" width="120" height="60" as="geometry"/>
                </mxCell>
                <mxCell id="203" value="" style="edgeStyle=none;hachureGap=4;html=1;fontFamily=Architects Daughter;fontSource=https%3A%2F%2Ffonts.googleapis.com%2Fcss%3Ffamily%3DArchitects%2BDaughter;fontSize=20;rounded=1;sketch=1;curveFitting=1;jiggle=2;" parent="1" source="202" edge="1">
                    <mxGeometry relative="1" as="geometry">
                        <mxPoint x="332" y="860" as="targetPoint"/>
                    </mxGeometry>
                </mxCell>
                <mxCell id="202" value="开始" style="rounded=1;whiteSpace=wrap;html=1;hachureGap=4;fontFamily=Architects Daughter;fontSource=https%3A%2F%2Ffonts.googleapis.com%2Fcss%3Ffamily%3DArchitects%2BDaughter;fontSize=20;sketch=1;curveFitting=1;jiggle=2;" parent="1" vertex="1">
                    <mxGeometry x="130" y="830" width="120" height="60" as="geometry"/>
                </mxCell>
                <mxCell id="208" value="结束" style="rounded=1;whiteSpace=wrap;html=1;hachureGap=4;fontFamily=Architects Daughter;fontSource=https%3A%2F%2Ffonts.googleapis.com%2Fcss%3Ffamily%3DArchitects%2BDaughter;fontSize=20;sketch=1;curveFitting=1;jiggle=2;" parent="1" vertex="1">
                    <mxGeometry x="757" y="565" width="120" height="60" as="geometry"/>
                </mxCell>
                <mxCell id="212" value="" style="edgeStyle=orthogonalEdgeStyle;hachureGap=4;html=1;fontFamily=Architects Daughter;fontSource=https%3A%2F%2Ffonts.googleapis.com%2Fcss%3Ffamily%3DArchitects%2BDaughter;fontSize=20;sketch=1;curveFitting=1;jiggle=2;" parent="1" source="211" target="65" edge="1">
                    <mxGeometry relative="1" as="geometry"/>
                </mxCell>
                <mxCell id="211" value="开始" style="rounded=1;whiteSpace=wrap;html=1;hachureGap=4;fontFamily=Architects Daughter;fontSource=https%3A%2F%2Ffonts.googleapis.com%2Fcss%3Ffamily%3DArchitects%2BDaughter;fontSize=20;sketch=1;curveFitting=1;jiggle=2;" parent="1" vertex="1">
                    <mxGeometry x="130" y="1095" width="120" height="60" as="geometry"/>
                </mxCell>
                <mxCell id="213" value="结束" style="rounded=1;whiteSpace=wrap;html=1;hachureGap=4;fontFamily=Architects Daughter;fontSource=https%3A%2F%2Ffonts.googleapis.com%2Fcss%3Ffamily%3DArchitects%2BDaughter;fontSize=20;sketch=1;curveFitting=1;jiggle=2;" parent="1" vertex="1">
                    <mxGeometry x="800" y="1096" width="120" height="60" as="geometry"/>
                </mxCell>
                <mxCell id="214" value="开始" style="rounded=1;whiteSpace=wrap;html=1;hachureGap=4;fontFamily=Architects Daughter;fontSource=https%3A%2F%2Ffonts.googleapis.com%2Fcss%3Ffamily%3DArchitects%2BDaughter;fontSize=20;sketch=1;curveFitting=1;jiggle=2;" parent="1" vertex="1">
                    <mxGeometry x="1206" y="1297" width="120" height="60" as="geometry"/>
                </mxCell>
                <mxCell id="215" value="结束" style="rounded=1;whiteSpace=wrap;html=1;hachureGap=4;fontFamily=Architects Daughter;fontSource=https%3A%2F%2Ffonts.googleapis.com%2Fcss%3Ffamily%3DArchitects%2BDaughter;fontSize=20;sketch=1;curveFitting=1;jiggle=2;" parent="1" vertex="1">
                    <mxGeometry x="1964" y="1297" width="120" height="60" as="geometry"/>
                </mxCell>
                <mxCell id="216" value="开始" style="rounded=1;whiteSpace=wrap;html=1;hachureGap=4;fontFamily=Architects Daughter;fontSource=https%3A%2F%2Ffonts.googleapis.com%2Fcss%3Ffamily%3DArchitects%2BDaughter;fontSize=20;sketch=1;curveFitting=1;jiggle=2;" parent="1" vertex="1">
                    <mxGeometry x="2289" y="1295.5" width="120" height="60" as="geometry"/>
                </mxCell>
                <mxCell id="217" value="结束" style="rounded=1;whiteSpace=wrap;html=1;hachureGap=4;fontFamily=Architects Daughter;fontSource=https%3A%2F%2Ffonts.googleapis.com%2Fcss%3Ffamily%3DArchitects%2BDaughter;fontSize=20;sketch=1;curveFitting=1;jiggle=2;" parent="1" vertex="1">
                    <mxGeometry x="3243" y="1297" width="120" height="60" as="geometry"/>
                </mxCell>
                <mxCell id="228" style="edgeStyle=orthogonalEdgeStyle;hachureGap=4;html=1;entryX=0;entryY=0.5;entryDx=0;entryDy=0;fontFamily=Architects Daughter;fontSource=https%3A%2F%2Ffonts.googleapis.com%2Fcss%3Ffamily%3DArchitects%2BDaughter;fontSize=16;exitX=0.512;exitY=0.029;exitDx=0;exitDy=0;exitPerimeter=0;sketch=1;curveFitting=1;jiggle=2;" parent="1" source="218" target="226" edge="1">
                    <mxGeometry relative="1" as="geometry">
                        <Array as="points">
                            <mxPoint x="2921" y="1261"/>
                        </Array>
                    </mxGeometry>
                </mxCell>
                <mxCell id="231" value="中文" style="edgeLabel;html=1;align=center;verticalAlign=middle;resizable=0;points=[];fontSize=16;fontFamily=Architects Daughter;sketch=1;curveFitting=1;jiggle=2;" parent="228" vertex="1" connectable="0">
                    <mxGeometry x="-0.0859" y="-2" relative="1" as="geometry">
                        <mxPoint x="39" y="-2" as="offset"/>
                    </mxGeometry>
                </mxCell>
                <mxCell id="229" style="edgeStyle=orthogonalEdgeStyle;hachureGap=4;html=1;entryX=0;entryY=0.5;entryDx=0;entryDy=0;fontFamily=Architects Daughter;fontSource=https%3A%2F%2Ffonts.googleapis.com%2Fcss%3Ffamily%3DArchitects%2BDaughter;fontSize=16;sketch=1;curveFitting=1;jiggle=2;" parent="1" source="218" target="227" edge="1">
                    <mxGeometry relative="1" as="geometry">
                        <Array as="points">
                            <mxPoint x="2919" y="1418"/>
                        </Array>
                    </mxGeometry>
                </mxCell>
                <mxCell id="232" value="英文" style="edgeLabel;html=1;align=center;verticalAlign=middle;resizable=0;points=[];fontSize=16;fontFamily=Architects Daughter;sketch=1;curveFitting=1;jiggle=2;" parent="229" vertex="1" connectable="0">
                    <mxGeometry x="0.0524" y="-3" relative="1" as="geometry">
                        <mxPoint x="26" y="-1" as="offset"/>
                    </mxGeometry>
                </mxCell>
                <mxCell id="218" value="判断输入法模式" style="html=1;whiteSpace=wrap;aspect=fixed;shape=isoRectangle;fontSize=16;rounded=1;sketch=1;curveFitting=1;jiggle=2;" parent="1" vertex="1">
                    <mxGeometry x="2844" y="1298" width="150" height="90" as="geometry"/>
                </mxCell>
                <mxCell id="238" style="edgeStyle=orthogonalEdgeStyle;hachureGap=4;html=1;entryX=0.5;entryY=0;entryDx=0;entryDy=0;fontFamily=Architects Daughter;fontSource=https%3A%2F%2Ffonts.googleapis.com%2Fcss%3Ffamily%3DArchitects%2BDaughter;fontSize=16;sketch=1;curveFitting=1;jiggle=2;" parent="1" source="226" target="217" edge="1">
                    <mxGeometry relative="1" as="geometry"/>
                </mxCell>
                <mxCell id="226" value="&lt;font style=&quot;font-size: 16px;&quot;&gt;打印“微软拼音-中文”&lt;/font&gt;" style="rounded=0;whiteSpace=wrap;html=1;hachureGap=4;fontFamily=Architects Daughter;fontSource=https%3A%2F%2Ffonts.googleapis.com%2Fcss%3Ffamily%3DArchitects%2BDaughter;fontSize=20;sketch=1;curveFitting=1;jiggle=2;" parent="1" vertex="1">
                    <mxGeometry x="3031" y="1231" width="180" height="60" as="geometry"/>
                </mxCell>
                <mxCell id="239" style="edgeStyle=orthogonalEdgeStyle;hachureGap=4;html=1;entryX=0.5;entryY=1;entryDx=0;entryDy=0;fontFamily=Architects Daughter;fontSource=https%3A%2F%2Ffonts.googleapis.com%2Fcss%3Ffamily%3DArchitects%2BDaughter;fontSize=16;sketch=1;curveFitting=1;jiggle=2;" parent="1" source="227" target="217" edge="1">
                    <mxGeometry relative="1" as="geometry"/>
                </mxCell>
                <mxCell id="227" value="&lt;font style=&quot;font-size: 16px;&quot;&gt;打印“微软拼音-英文”&lt;/font&gt;" style="rounded=0;whiteSpace=wrap;html=1;hachureGap=4;fontFamily=Architects Daughter;fontSource=https%3A%2F%2Ffonts.googleapis.com%2Fcss%3Ffamily%3DArchitects%2BDaughter;fontSize=20;sketch=1;curveFitting=1;jiggle=2;" parent="1" vertex="1">
                    <mxGeometry x="3031" y="1388" width="182" height="60" as="geometry"/>
                </mxCell>
                <mxCell id="245" value="" style="edgeStyle=none;sketch=1;hachureGap=4;jiggle=2;curveFitting=1;html=1;fontFamily=Helvetica;fontSize=20;" parent="1" source="241" target="243" edge="1">
                    <mxGeometry relative="1" as="geometry"/>
                </mxCell>
                <mxCell id="241" value="开始" style="rounded=1;whiteSpace=wrap;html=1;hachureGap=4;fontFamily=Architects Daughter;fontSource=https%3A%2F%2Ffonts.googleapis.com%2Fcss%3Ffamily%3DArchitects%2BDaughter;fontSize=20;sketch=1;curveFitting=1;jiggle=2;" parent="1" vertex="1">
                    <mxGeometry x="130" y="1642" width="120" height="60" as="geometry"/>
                </mxCell>
                <mxCell id="242" value="结束" style="rounded=1;whiteSpace=wrap;html=1;hachureGap=4;fontFamily=Architects Daughter;fontSource=https%3A%2F%2Ffonts.googleapis.com%2Fcss%3Ffamily%3DArchitects%2BDaughter;fontSize=20;sketch=1;curveFitting=1;jiggle=2;" parent="1" vertex="1">
                    <mxGeometry x="710" y="1642" width="120" height="60" as="geometry"/>
                </mxCell>
                <mxCell id="246" value="" style="edgeStyle=none;sketch=1;hachureGap=4;jiggle=2;curveFitting=1;html=1;fontFamily=Helvetica;fontSize=20;" parent="1" source="243" target="242" edge="1">
                    <mxGeometry relative="1" as="geometry"/>
                </mxCell>
                <mxCell id="249" value="False" style="edgeLabel;html=1;align=center;verticalAlign=middle;resizable=0;points=[];fontSize=20;fontFamily=Helvetica;" parent="246" vertex="1" connectable="0">
                    <mxGeometry x="-0.3466" y="1" relative="1" as="geometry">
                        <mxPoint x="14" y="1" as="offset"/>
                    </mxGeometry>
                </mxCell>
                <mxCell id="247" style="edgeStyle=orthogonalEdgeStyle;sketch=1;hachureGap=4;jiggle=2;curveFitting=1;html=1;entryX=1;entryY=0.5;entryDx=0;entryDy=0;fontFamily=Helvetica;fontSize=20;" parent="1" source="243" target="244" edge="1">
                    <mxGeometry relative="1" as="geometry">
                        <Array as="points">
                            <mxPoint x="494" y="1793"/>
                        </Array>
                    </mxGeometry>
                </mxCell>
                <mxCell id="250" value="True" style="edgeLabel;html=1;align=center;verticalAlign=middle;resizable=0;points=[];fontSize=20;fontFamily=Helvetica;" parent="247" vertex="1" connectable="0">
                    <mxGeometry x="-0.4287" y="3" relative="1" as="geometry">
                        <mxPoint x="-3" y="-13" as="offset"/>
                    </mxGeometry>
                </mxCell>
                <mxCell id="243" value="条件判断" style="html=1;whiteSpace=wrap;aspect=fixed;shape=isoRectangle;fontSize=20;rounded=1;sketch=1;curveFitting=1;jiggle=2;" parent="1" vertex="1">
                    <mxGeometry x="419" y="1627" width="150" height="90" as="geometry"/>
                </mxCell>
                <mxCell id="248" style="edgeStyle=orthogonalEdgeStyle;sketch=1;hachureGap=4;jiggle=2;curveFitting=1;html=1;fontFamily=Helvetica;fontSize=20;entryX=-0.009;entryY=0.511;entryDx=0;entryDy=0;entryPerimeter=0;" parent="1" source="244" target="243" edge="1">
                    <mxGeometry relative="1" as="geometry">
                        <mxPoint x="333" y="1676" as="targetPoint"/>
                        <Array as="points">
                            <mxPoint x="333" y="1673"/>
                        </Array>
                    </mxGeometry>
                </mxCell>
                <mxCell id="244" value="语句" style="rounded=0;whiteSpace=wrap;html=1;sketch=1;hachureGap=4;jiggle=2;curveFitting=1;fontFamily=Helvetica;fontSize=20;" parent="1" vertex="1">
                    <mxGeometry x="273" y="1763" width="120" height="60" as="geometry"/>
                </mxCell>
                <mxCell id="251" value="" style="edgeStyle=none;sketch=1;hachureGap=4;jiggle=2;curveFitting=1;html=1;fontFamily=Helvetica;fontSize=20;" parent="1" source="252" target="258" edge="1">
                    <mxGeometry relative="1" as="geometry"/>
                </mxCell>
                <mxCell id="252" value="开始" style="rounded=1;whiteSpace=wrap;html=1;hachureGap=4;fontFamily=Architects Daughter;fontSource=https%3A%2F%2Ffonts.googleapis.com%2Fcss%3Ffamily%3DArchitects%2BDaughter;fontSize=20;sketch=1;curveFitting=1;jiggle=2;" parent="1" vertex="1">
                    <mxGeometry x="128" y="1985" width="120" height="60" as="geometry"/>
                </mxCell>
                <mxCell id="253" value="结束" style="rounded=1;whiteSpace=wrap;html=1;hachureGap=4;fontFamily=Architects Daughter;fontSource=https%3A%2F%2Ffonts.googleapis.com%2Fcss%3Ffamily%3DArchitects%2BDaughter;fontSize=20;sketch=1;curveFitting=1;jiggle=2;" parent="1" vertex="1">
                    <mxGeometry x="854" y="1985" width="120" height="60" as="geometry"/>
                </mxCell>
                <mxCell id="254" value="" style="edgeStyle=none;sketch=1;hachureGap=4;jiggle=2;curveFitting=1;html=1;fontFamily=Helvetica;fontSize=20;" parent="1" source="258" target="253" edge="1">
                    <mxGeometry relative="1" as="geometry"/>
                </mxCell>
                <mxCell id="255" value="False" style="edgeLabel;html=1;align=center;verticalAlign=middle;resizable=0;points=[];fontSize=20;fontFamily=Helvetica;" parent="254" vertex="1" connectable="0">
                    <mxGeometry x="-0.3466" y="1" relative="1" as="geometry">
                        <mxPoint x="14" y="1" as="offset"/>
                    </mxGeometry>
                </mxCell>
                <mxCell id="256" style="edgeStyle=orthogonalEdgeStyle;sketch=1;hachureGap=4;jiggle=2;curveFitting=1;html=1;entryX=1;entryY=0.5;entryDx=0;entryDy=0;fontFamily=Helvetica;fontSize=20;" parent="1" source="258" target="260" edge="1">
                    <mxGeometry relative="1" as="geometry">
                        <Array as="points">
                            <mxPoint x="644" y="2324"/>
                        </Array>
                    </mxGeometry>
                </mxCell>
                <mxCell id="257" value="True" style="edgeLabel;html=1;align=center;verticalAlign=middle;resizable=0;points=[];fontSize=20;fontFamily=Helvetica;" parent="256" vertex="1" connectable="0">
                    <mxGeometry x="-0.4287" y="3" relative="1" as="geometry">
                        <mxPoint x="-3" y="-13" as="offset"/>
                    </mxGeometry>
                </mxCell>
                <mxCell id="258" value="条件判断" style="html=1;whiteSpace=wrap;aspect=fixed;shape=isoRectangle;fontSize=20;rounded=1;sketch=1;curveFitting=1;jiggle=2;" parent="1" vertex="1">
                    <mxGeometry x="569" y="1972" width="150" height="90" as="geometry"/>
                </mxCell>
                <mxCell id="272" value="" style="edgeStyle=orthogonalEdgeStyle;sketch=1;hachureGap=4;jiggle=2;curveFitting=1;html=1;fontFamily=Helvetica;fontSize=20;" parent="1" source="260" target="261" edge="1">
                    <mxGeometry relative="1" as="geometry"/>
                </mxCell>
                <mxCell id="260" value="语句" style="rounded=0;whiteSpace=wrap;html=1;sketch=1;hachureGap=4;jiggle=2;curveFitting=1;fontFamily=Helvetica;fontSize=20;" parent="1" vertex="1">
                    <mxGeometry x="273" y="2294" width="120" height="60" as="geometry"/>
                </mxCell>
                <mxCell id="274" value="" style="edgeStyle=orthogonalEdgeStyle;sketch=1;hachureGap=4;jiggle=2;curveFitting=1;html=1;fontFamily=Helvetica;fontSize=20;entryX=-0.012;entryY=0.512;entryDx=0;entryDy=0;entryPerimeter=0;" parent="1" source="261" target="258" edge="1">
                    <mxGeometry relative="1" as="geometry">
                        <mxPoint x="551" y="2034" as="targetPoint"/>
                        <Array as="points">
                            <mxPoint x="333" y="2158"/>
                            <mxPoint x="415" y="2158"/>
                            <mxPoint x="415" y="2056"/>
                            <mxPoint x="328" y="2056"/>
                            <mxPoint x="328" y="2018"/>
                        </Array>
                    </mxGeometry>
                </mxCell>
                <mxCell id="261" value="continue" style="rounded=0;whiteSpace=wrap;html=1;sketch=1;hachureGap=4;jiggle=2;curveFitting=1;fontFamily=Helvetica;fontSize=20;" parent="1" vertex="1">
                    <mxGeometry x="273" y="2205" width="120" height="60" as="geometry"/>
                </mxCell>
                <mxCell id="262" value="语句" style="rounded=0;whiteSpace=wrap;html=1;sketch=1;hachureGap=4;jiggle=2;curveFitting=1;fontFamily=Helvetica;fontSize=20;" parent="1" vertex="1">
                    <mxGeometry x="273" y="2078" width="120" height="60" as="geometry"/>
                </mxCell>
                <mxCell id="277" value="" style="edgeStyle=none;sketch=1;hachureGap=4;jiggle=2;curveFitting=1;html=1;fontFamily=Helvetica;fontSize=20;" parent="1" source="278" target="284" edge="1">
                    <mxGeometry relative="1" as="geometry"/>
                </mxCell>
                <mxCell id="278" value="开始" style="rounded=1;whiteSpace=wrap;html=1;hachureGap=4;fontFamily=Architects Daughter;fontSource=https%3A%2F%2Ffonts.googleapis.com%2Fcss%3Ffamily%3DArchitects%2BDaughter;fontSize=20;sketch=1;curveFitting=1;jiggle=2;" parent="1" vertex="1">
                    <mxGeometry x="1139" y="1985" width="120" height="60" as="geometry"/>
                </mxCell>
                <mxCell id="279" value="结束" style="rounded=1;whiteSpace=wrap;html=1;hachureGap=4;fontFamily=Architects Daughter;fontSource=https%3A%2F%2Ffonts.googleapis.com%2Fcss%3Ffamily%3DArchitects%2BDaughter;fontSize=20;sketch=1;curveFitting=1;jiggle=2;" parent="1" vertex="1">
                    <mxGeometry x="1865" y="1985" width="120" height="60" as="geometry"/>
                </mxCell>
                <mxCell id="280" value="" style="edgeStyle=none;sketch=1;hachureGap=4;jiggle=2;curveFitting=1;html=1;fontFamily=Helvetica;fontSize=20;" parent="1" source="284" target="279" edge="1">
                    <mxGeometry relative="1" as="geometry"/>
                </mxCell>
                <mxCell id="281" value="False" style="edgeLabel;html=1;align=center;verticalAlign=middle;resizable=0;points=[];fontSize=20;fontFamily=Helvetica;" parent="280" vertex="1" connectable="0">
                    <mxGeometry x="-0.3466" y="1" relative="1" as="geometry">
                        <mxPoint x="14" y="1" as="offset"/>
                    </mxGeometry>
                </mxCell>
                <mxCell id="282" style="edgeStyle=orthogonalEdgeStyle;sketch=1;hachureGap=4;jiggle=2;curveFitting=1;html=1;entryX=1;entryY=0.5;entryDx=0;entryDy=0;fontFamily=Helvetica;fontSize=20;" parent="1" source="284" target="286" edge="1">
                    <mxGeometry relative="1" as="geometry">
                        <Array as="points">
                            <mxPoint x="1655" y="2278"/>
                        </Array>
                    </mxGeometry>
                </mxCell>
                <mxCell id="283" value="True" style="edgeLabel;html=1;align=center;verticalAlign=middle;resizable=0;points=[];fontSize=20;fontFamily=Helvetica;" parent="282" vertex="1" connectable="0">
                    <mxGeometry x="-0.4287" y="3" relative="1" as="geometry">
                        <mxPoint x="-3" y="-13" as="offset"/>
                    </mxGeometry>
                </mxCell>
                <mxCell id="284" value="条件判断" style="html=1;whiteSpace=wrap;aspect=fixed;shape=isoRectangle;fontSize=20;rounded=1;sketch=1;curveFitting=1;jiggle=2;" parent="1" vertex="1">
                    <mxGeometry x="1580" y="1972" width="150" height="90" as="geometry"/>
                </mxCell>
                <mxCell id="285" value="" style="edgeStyle=orthogonalEdgeStyle;sketch=1;hachureGap=4;jiggle=2;curveFitting=1;html=1;fontFamily=Helvetica;fontSize=20;" parent="1" source="286" target="288" edge="1">
                    <mxGeometry relative="1" as="geometry"/>
                </mxCell>
                <mxCell id="286" value="语句" style="rounded=0;whiteSpace=wrap;html=1;sketch=1;hachureGap=4;jiggle=2;curveFitting=1;fontFamily=Helvetica;fontSize=20;" parent="1" vertex="1">
                    <mxGeometry x="1377" y="2248" width="120" height="60" as="geometry"/>
                </mxCell>
                <mxCell id="290" style="edgeStyle=orthogonalEdgeStyle;sketch=1;hachureGap=4;jiggle=2;curveFitting=1;html=1;entryX=0.5;entryY=1;entryDx=0;entryDy=0;fontFamily=Helvetica;fontSize=20;" parent="1" source="288" target="279" edge="1">
                    <mxGeometry relative="1" as="geometry">
                        <Array as="points">
                            <mxPoint x="1437" y="2117"/>
                            <mxPoint x="1338" y="2117"/>
                            <mxPoint x="1338" y="2336"/>
                            <mxPoint x="1925" y="2336"/>
                        </Array>
                    </mxGeometry>
                </mxCell>
                <mxCell id="288" value="break" style="rounded=0;whiteSpace=wrap;html=1;sketch=1;hachureGap=4;jiggle=2;curveFitting=1;fontFamily=Helvetica;fontSize=20;" parent="1" vertex="1">
                    <mxGeometry x="1377" y="2138" width="120" height="60" as="geometry"/>
                </mxCell>
                <mxCell id="289" value="语句" style="rounded=0;whiteSpace=wrap;html=1;sketch=1;hachureGap=4;jiggle=2;curveFitting=1;fontFamily=Helvetica;fontSize=20;" parent="1" vertex="1">
                    <mxGeometry x="1377" y="2045" width="120" height="60" as="geometry"/>
                </mxCell>
            </root>
        </mxGraphModel>
    </diagram>
</mxfile>